<svg id="Слой_1" data-name="Слой 1" xmlns="http://www.w3.org/2000/svg" viewBox="0 0 240 240"><title>games</title><line x1="31" y1="1" x2="31" y2="240" style="fill:none;stroke:#999;stroke-miterlimit:10;stroke-width:0.5px"/><line x1="61" y1="1" x2="61" y2="240" style="fill:none;stroke:#999;stroke-miterlimit:10;stroke-width:0.5px"/><line x1="91" y1="1" x2="91" y2="240" style="fill:none;stroke:#999;stroke-miterlimit:10;stroke-width:0.5px"/><line x1="121" y1="1" x2="121" y2="240" style="fill:none;stroke:#999;stroke-miterlimit:10;stroke-width:0.5px"/><line x1="151" y1="1" x2="151" y2="240" style="fill:none;stroke:#999;stroke-miterlimit:10;stroke-width:0.5px"/><line x1="181" y1="1" x2="181" y2="240" style="fill:none;stroke:#999;stroke-miterlimit:10;stroke-width:0.5px"/><line x1="211" y1="1" x2="211" y2="240" style="fill:none;stroke:#999;stroke-miterlimit:10;stroke-width:0.5px"/><line x1="239" y1="31" x2="1" y2="31" style="fill:none;stroke:#999;stroke-miterlimit:10;stroke-width:0.5px"/><line x1="239" y1="61" x2="1" y2="61" style="fill:none;stroke:#999;stroke-miterlimit:10;stroke-width:0.5px"/><line x1="239" y1="91" x2="1" y2="91" style="fill:none;stroke:#999;stroke-miterlimit:10;stroke-width:0.5px"/><line x1="239" y1="121" x2="1" y2="121" style="fill:none;stroke:#999;stroke-miterlimit:10;stroke-width:0.5px"/><line x1="239" y1="151" x2="1" y2="151" style="fill:none;stroke:#999;stroke-miterlimit:10;stroke-width:0.5px"/><line x1="239" y1="181" x2="1" y2="181" style="fill:none;stroke:#999;stroke-miterlimit:10;stroke-width:0.5px"/><line x1="239" y1="211" x2="1" y2="211" style="fill:none;stroke:#999;stroke-miterlimit:10;stroke-width:0.5px"/><line x1="98" y1="68" x2="114" y2="84" style="fill:none;stroke:#00007f;stroke-linecap:round;stroke-linejoin:round"/><line x1="114" y1="68" x2="98" y2="84" style="fill:none;stroke:#00007f;stroke-linecap:round;stroke-linejoin:round"/><line x1="128" y1="98" x2="144" y2="114" style="fill:none;stroke:#00007f;stroke-linecap:round;stroke-linejoin:round"/><line x1="144" y1="98" x2="128" y2="114" style="fill:none;stroke:#00007f;stroke-linecap:round;stroke-linejoin:round"/><line x1="158" y1="38" x2="174" y2="54" style="fill:none;stroke:#00007f;stroke-linecap:round;stroke-linejoin:round"/><line x1="174" y1="38" x2="158" y2="54" style="fill:none;stroke:#00007f;stroke-linecap:round;stroke-linejoin:round"/><line x1="158" y1="68" x2="174" y2="84" style="fill:none;stroke:#00007f;stroke-linecap:round;stroke-linejoin:round"/><line x1="174" y1="68" x2="158" y2="84" style="fill:none;stroke:#00007f;stroke-linecap:round;stroke-linejoin:round"/><line x1="128" y1="38" x2="144" y2="54" style="fill:none;stroke:#00007f;stroke-linecap:round;stroke-linejoin:round"/><line x1="144" y1="38" x2="128" y2="54" style="fill:none;stroke:#00007f;stroke-linecap:round;stroke-linejoin:round"/><line x1="68" y1="158" x2="84" y2="174" style="fill:none;stroke:#00007f;stroke-linecap:round;stroke-linejoin:round"/><line x1="84" y1="158" x2="68" y2="174" style="fill:none;stroke:#00007f;stroke-linecap:round;stroke-linejoin:round"/><line x1="158" y1="128" x2="174" y2="144" style="fill:none;stroke:#00007f;stroke-linecap:round;stroke-linejoin:round"/><line x1="174" y1="128" x2="158" y2="144" style="fill:none;stroke:#00007f;stroke-linecap:round;stroke-linejoin:round"/><circle cx="136" cy="76" r="9" style="fill:none;stroke:#7e0000;stroke-linecap:round;stroke-linejoin:round"/><circle cx="166" cy="106" r="9" style="fill:none;stroke:#7e0000;stroke-linecap:round;stroke-linejoin:round"/><circle cx="196" cy="166" r="9" style="fill:none;stroke:#7e0000;stroke-linecap:round;stroke-linejoin:round"/><circle cx="226" cy="225" r="9" style="fill:none;stroke:#7e0000;stroke-linecap:round;stroke-linejoin:round"/><circle cx="76" cy="46" r="9" style="fill:none;stroke:#7e0000;stroke-linecap:round;stroke-linejoin:round"/><circle cx="76" cy="136" r="9" style="fill:none;stroke:#7e0000;stroke-linecap:round;stroke-linejoin:round"/><circle cx="76" cy="106" r="9" style="fill:none;stroke:#7e0000;stroke-linecap:round;stroke-linejoin:round"/><circle cx="106" cy="106" r="9" style="fill:none;stroke:#7e0000;stroke-linecap:round;stroke-linejoin:round"/></svg>