<svg id="Слой_1" data-name="Слой 1" xmlns="http://www.w3.org/2000/svg" viewBox="0 0 240 240"><title>games</title><rect width="240" height="240" style="fill:#56884f"/><line x1="31" y1="1" x2="31" y2="240" style="fill:none;stroke:#999;stroke-miterlimit:10;stroke-width:0.5px"/><line x1="61" y1="1" x2="61" y2="240" style="fill:none;stroke:#999;stroke-miterlimit:10;stroke-width:0.5px"/><line x1="91" y1="1" x2="91" y2="240" style="fill:none;stroke:#999;stroke-miterlimit:10;stroke-width:0.5px"/><line x1="121" y1="1" x2="121" y2="240" style="fill:none;stroke:#999;stroke-miterlimit:10;stroke-width:0.5px"/><line x1="151" y1="1" x2="151" y2="240" style="fill:none;stroke:#999;stroke-miterlimit:10;stroke-width:0.5px"/><line x1="181" y1="1" x2="181" y2="240" style="fill:none;stroke:#999;stroke-miterlimit:10;stroke-width:0.5px"/><line x1="211" y1="1" x2="211" y2="240" style="fill:none;stroke:#999;stroke-miterlimit:10;stroke-width:0.5px"/><line x1="239" y1="31" x2="1" y2="31" style="fill:none;stroke:#999;stroke-miterlimit:10;stroke-width:0.5px"/><line x1="239" y1="61" x2="1" y2="61" style="fill:none;stroke:#999;stroke-miterlimit:10;stroke-width:0.5px"/><line x1="239" y1="91" x2="1" y2="91" style="fill:none;stroke:#999;stroke-miterlimit:10;stroke-width:0.5px"/><line x1="239" y1="121" x2="1" y2="121" style="fill:none;stroke:#999;stroke-miterlimit:10;stroke-width:0.5px"/><line x1="239" y1="151" x2="1" y2="151" style="fill:none;stroke:#999;stroke-miterlimit:10;stroke-width:0.5px"/><line x1="239" y1="181" x2="1" y2="181" style="fill:none;stroke:#999;stroke-miterlimit:10;stroke-width:0.5px"/><line x1="239" y1="211" x2="1" y2="211" style="fill:none;stroke:#999;stroke-miterlimit:10;stroke-width:0.5px"/><circle cx="166" cy="166" r="11" style="fill:#ccc"/><circle cx="165" cy="166" r="10" style="fill:#e6e6e6"/><path d="M0,0Z" style="fill:#f2f2f2;fill-rule:evenodd"/><circle cx="166" cy="106" r="11" style="fill:#ccc"/><circle cx="165" cy="106" r="10" style="fill:#e6e6e6"/><path d="M0,0Z" style="fill:#f2f2f2;fill-rule:evenodd"/><circle cx="136" cy="76" r="11" style="fill:#ccc"/><circle cx="135" cy="76" r="10" style="fill:#e6e6e6"/><path d="M0,0Z" style="fill:#f2f2f2;fill-rule:evenodd"/><circle cx="136" cy="46" r="11" style="fill:#ccc"/><circle cx="135" cy="46" r="10" style="fill:#e6e6e6"/><path d="M0,0Z" style="fill:#f2f2f2;fill-rule:evenodd"/><circle cx="167" cy="76" r="11" style="fill:#ccc"/><circle cx="166" cy="76" r="10" style="fill:#e6e6e6"/><path d="M0,0Z" style="fill:#f2f2f2;fill-rule:evenodd"/><circle cx="105" cy="106" r="11"/><circle cx="105" cy="106" r="10" style="fill:#131415"/><path d="M0,0Z" style="fill:#fff;fill-rule:evenodd"/><circle cx="135" cy="106" r="11"/><circle cx="135" cy="106" r="10" style="fill:#131415"/><path d="M0,0Z" style="fill:#fff;fill-rule:evenodd"/><circle cx="135" cy="136" r="11"/><circle cx="135" cy="136" r="10" style="fill:#131415"/><path d="M0,0Z" style="fill:#fff;fill-rule:evenodd"/><circle cx="135" cy="167" r="11"/><circle cx="135" cy="167" r="10" style="fill:#131415"/><path d="M0,0Z" style="fill:#fff;fill-rule:evenodd"/><circle cx="75" cy="166" r="11"/><circle cx="75" cy="166" r="10" style="fill:#131415"/><path d="M0,0Z" style="fill:#fff;fill-rule:evenodd"/><circle cx="105" cy="137" r="11"/><circle cx="105" cy="137" r="10" style="fill:#131415"/><path d="M0,0Z" style="fill:#fff;fill-rule:evenodd"/></svg>